<?xml version="1.0" encoding="utf-8"?>
<!-- Generator: Adobe Illustrator 23.1.1, SVG Export Plug-In . SVG Version: 6.00 Build 0)  -->
<svg version="1.1" id="Capa_1" xmlns="http://www.w3.org/2000/svg" xmlns:xlink="http://www.w3.org/1999/xlink" x="0px" y="0px"
	 viewBox="0 0 341.45 256.14" style="enable-background:new 0 0 341.45 256.14;" xml:space="preserve">
<style type="text/css">
	.st0{fill:#D72E64;}
</style>
<g>
	<path class="st0" d="M170.75,42.8c-49.01,0-98.02,0.01-147.02,0c-11.68,0-20.25-5.9-22.92-15.61C-3.01,13.24,7.13,0.1,21.95,0.05
		c27.67-0.09,55.34-0.03,83.01-0.03c71.18,0,142.36,0,213.53,0.01c11.17,0,19.7,6.1,22.21,15.76c3.58,13.79-6.25,26.56-20.93,26.97
		c-7.5,0.21-15,0.04-22.5,0.04C255.1,42.8,212.93,42.8,170.75,42.8z"/>
	<path class="st0" d="M170.49,256.12c-49.34,0-98.68,0.02-148.03-0.02C7.4,256.09-2.71,243.61,0.72,229.46
		c2.38-9.82,11.02-16.09,22.5-16.1c36.67-0.04,73.35-0.02,110.02-0.02c61.51,0,123.02-0.01,184.53,0.02
		c12.13,0,20.82,6.33,23.08,16.61c3.05,13.83-6.85,26.09-21.33,26.13c-30.67,0.08-61.34,0.03-92.02,0.03
		C208.5,256.12,189.49,256.12,170.49,256.12z"/>
	<path class="st0" d="M171.24,106.81c49.17,0,98.34-0.02,147.51,0.02c15.29,0.01,25.34,12.1,22.04,26.31
		c-2.25,9.69-10.54,16.11-21.3,16.16c-19.83,0.09-39.67,0.03-59.51,0.03c-78.84,0-157.68,0-236.52-0.01
		c-12.67,0-21-6.43-23.05-17.66c-2.25-12.31,6.82-24.09,19.32-24.72c6.82-0.34,13.66-0.12,20.5-0.12
		C83.9,106.81,127.57,106.81,171.24,106.81z"/>
</g>
</svg>
