<?xml version="1.0" encoding="utf-8"?>
<!-- Generator: Adobe Illustrator 23.1.1, SVG Export Plug-In . SVG Version: 6.00 Build 0)  -->
<svg version="1.1" id="Capa_1" xmlns="http://www.w3.org/2000/svg" xmlns:xlink="http://www.w3.org/1999/xlink" x="0px" y="0px"
	 viewBox="0 0 1920 1280" style="enable-background:new 0 0 1920 1280;" xml:space="preserve">
<style type="text/css">
	.st0{fill:none;stroke:#EFA0E8;stroke-width:2.478;stroke-linecap:square;stroke-miterlimit:10;}
	.st1{opacity:0.3;fill:#ECFF17;}
</style>
<path class="st0" d="M870.9,596.77v291.25H1920V311.16c0,0-20.64-9.25-52.95-4.07c-48.16,7.73-123.99,36.22-210.15,84.14
	c-162.3,90.28-242.04,223.88-388.86,223.88c-227.14,0-269.72-31.05-317.71-31.05C902.34,584.07,870.9,596.77,870.9,596.77z"/>
<path class="st0" d="M975.81,586.78c0,0,20.9,51.21,20.9,92.07c0,53.93-14.55,97.47-21.74,138.06c-8.17,46.09,0.84,71.12,0.84,71.12
	"/>
<path class="st0" d="M1058.79,602.31c0,0,4.96,25.02,21.93,53.35c13.3,22.21,61.45,46.44,61.45,81.75
	c0,36.9-27.67,71.43-41.69,98.33c-16.5,31.67-19.76,52.63-19.76,52.63"/>
<path class="st0" d="M1153.5,611.96c0,0,7.2,22.73,27.89,43.7c30,30.41,73.54,66.3,73.54,89.68c0,22.47-8.31,49.16-37.59,82.22
	c-22.19,25.06-31.71,60.8-31.71,60.8"/>
<path class="st0" d="M1285.61,614.75c0,0-1.25,12.64,16.71,31.42c24.49,25.61,73.53,63.04,73.53,99.17
	c0,36.37-42.4,67.8-66.99,96.93c-17.75,21.02-18.32,46.09-18.32,46.09"/>
<path class="st0" d="M1395.45,578.63c0,0,1.45,22.14,8.19,33.32c20.23,33.55,63.73,91.18,63.73,138.2
	c0,31.35-35.95,55.63-53.93,82.3s-17.99,55.73-17.99,55.73"/>
<path class="st0" d="M1500.36,502.46c0,0,6.29,18.91,16.04,60.36c11.94,50.81,40.83,92.83,40.83,132.5
	c0,42.08-26.87,76.94-39.2,120.79c-9.08,32.31-17.67,72.07-17.67,72.07"/>
<path class="st0" d="M1605.27,423.12c0,0-8.8,62.9-0.74,97.21c12.34,52.5,38.32,76.43,37.69,135.32
	c-0.66,62.8-20.69,117.42-31.05,155.56c-8.33,30.67-5.91,76.97-5.91,76.97"/>
<path class="st0" d="M1710.18,363.37c0,0-21.53,32.77-20.56,73.62c1.12,47.26,60.83,141.64,60.46,210.81
	c-0.29,55.36-39.22,135.64-39.9,176.49c-0.53,31.94,0,64.07,0,64.07"/>
<path class="st0" d="M1815.09,320.14c0,0-14.35,35.95-14.35,69.47s35.95,316.23,35.95,347.8c0,31.57-13.56,79.56-17.98,108.13
	c-2.99,19.38-3.63,42.83-3.63,42.83"/>
<path class="st0" d="M870.9,655.66c0,0,285.98,18.29,349.71,18.29c29.73,0,100.97,15.57,243.49-48.08
	c104.91-46.85,155.09-96.24,235.64-142.69c71.58-41.28,220.26-72.33,220.26-72.33"/>
<path class="st0" d="M870.9,713.17c0,0,294.15,36.55,384.03,32.17s258.3-20.73,300.74-32.17c42.44-11.44,147.17-84.98,191.22-96.42
	s173.11-2,173.11-2"/>
<path class="st0" d="M870.9,780.17c0,0,78.44,21.24,166.68,31.05s189.75,6.05,248.01,0c58.26-6.05,172.58-16.34,214.76-19.61
	c42.18-3.27,280.77-29.42,300.38-31.05c19.61-1.63,76.84-1.63,98.05,0s21.21,1.63,21.21,1.63"/>
<path class="st0" d="M870.9,843.9c0,0,168.32,26.15,251.66,24.51s226.44-6.46,279.09-12.22s104.82-12.63,179.99-14.26
	c75.17-1.63,165.23-8.45,266.49,1.97c43.98,4.53,71.87,9.92,71.87,9.92"/>
<circle class="st1" cx="833.88" cy="641.83" r="175.42"/>
</svg>
