<?xml version="1.0" encoding="utf-8"?>
<!-- Generator: Adobe Illustrator 23.1.1, SVG Export Plug-In . SVG Version: 6.00 Build 0)  -->
<svg version="1.1" id="Capa_1" xmlns="http://www.w3.org/2000/svg" xmlns:xlink="http://www.w3.org/1999/xlink" x="0px" y="0px"
	 viewBox="0 0 68.54 57" style="enable-background:new 0 0 68.54 57;" xml:space="preserve">
<style type="text/css">
	.st0{fill:#D72E64;}
	.st1{fill:#FDFED7;}
</style>
<title>logo</title>
<path class="st0" d="M13.54,27.69l6.82,11h-6.41l-4.67-7.31l-2.64,2.38l-1,4.93H0l4.06-20.3h5.65l-1.65,8.29l9.17-8.29h6.75
	L13.54,27.69z"/>
<title>logo</title>
<path class="st1" d="M28.69,27.69l6.82,11H29.1l-4.67-7.31l-2.64,2.38l-1,4.93h-5.64l4.06-20.3h5.65l-1.65,8.29l9.17-8.29h6.75
	L28.69,27.69z"/>
<title>logo</title>
<path class="st0" d="M43,27.69l6.82,11h-6.41l-4.67-7.31l-2.64,2.38l-1,4.93h-5.64l4.06-20.3h5.65l-1.65,8.29l9.17-8.29h6.75
	L43,27.69z"/>
<path class="st1" d="M58.1,27.69l6.82,11h-6.41l-4.67-7.31l-2.64,2.38l-1,4.93h-5.64l4.06-20.3h5.65l-1.65,8.29l9.17-8.29h6.75
	L58.1,27.69z"/>
</svg>
